<mxfile host="app.diagrams.net" modified="2021-02-06T08:02:33.394Z" agent="5.0 (Windows NT 10.0; Win64; x64) AppleWebKit/537.36 (KHTML, like Gecko) Chrome/88.0.4324.146 Safari/537.36" etag="QhGzc_yU7ptQ8zYnoiQX" version="14.2.9" type="github">
  <diagram id="kgpKYQtTHZ0yAKxKKP6v" name="Page-1">
    <mxGraphModel dx="1422" dy="794" grid="1" gridSize="10" guides="1" tooltips="1" connect="1" arrows="1" fold="1" page="1" pageScale="1" pageWidth="850" pageHeight="1100" math="0" shadow="0">
      <root>
        <mxCell id="0" />
        <mxCell id="1" parent="0" />
        <mxCell id="3nuBFxr9cyL0pnOWT2aG-1" value="UE" style="shape=umlLifeline;perimeter=lifelinePerimeter;container=1;collapsible=0;recursiveResize=0;rounded=0;shadow=0;strokeWidth=1;fillColor=#0050ef;strokeColor=#001DBC;fontColor=#ffffff;" parent="1" vertex="1">
          <mxGeometry x="90" y="80" width="100" height="1020" as="geometry" />
        </mxCell>
        <mxCell id="3nuBFxr9cyL0pnOWT2aG-2" value="" style="points=[];perimeter=orthogonalPerimeter;rounded=0;shadow=0;strokeWidth=1;" parent="3nuBFxr9cyL0pnOWT2aG-1" vertex="1">
          <mxGeometry x="45" y="70" width="10" height="60" as="geometry" />
        </mxCell>
        <mxCell id="6LJH4JD9_U_oKKo7QwNi-42" value="" style="points=[];perimeter=orthogonalPerimeter;rounded=0;shadow=0;strokeWidth=1;" vertex="1" parent="3nuBFxr9cyL0pnOWT2aG-1">
          <mxGeometry x="45" y="640" width="10" height="60" as="geometry" />
        </mxCell>
        <mxCell id="3nuBFxr9cyL0pnOWT2aG-5" value="RAN" style="shape=umlLifeline;perimeter=lifelinePerimeter;container=1;collapsible=0;recursiveResize=0;rounded=0;shadow=0;strokeWidth=1;fillColor=#0050ef;strokeColor=#001DBC;fontColor=#ffffff;" parent="1" vertex="1">
          <mxGeometry x="300" y="80" width="100" height="1020" as="geometry" />
        </mxCell>
        <mxCell id="3nuBFxr9cyL0pnOWT2aG-6" value="" style="points=[];perimeter=orthogonalPerimeter;rounded=0;shadow=0;strokeWidth=1;" parent="3nuBFxr9cyL0pnOWT2aG-5" vertex="1">
          <mxGeometry x="45" y="80" width="10" height="70" as="geometry" />
        </mxCell>
        <mxCell id="6LJH4JD9_U_oKKo7QwNi-41" value="" style="points=[];perimeter=orthogonalPerimeter;rounded=0;shadow=0;strokeWidth=1;" vertex="1" parent="3nuBFxr9cyL0pnOWT2aG-5">
          <mxGeometry x="45" y="580" width="10" height="140" as="geometry" />
        </mxCell>
        <mxCell id="3nuBFxr9cyL0pnOWT2aG-8" value="N1 PDU  Session Estalisbment Request " style="verticalAlign=bottom;endArrow=block;entryX=0;entryY=0;shadow=0;strokeWidth=1;" parent="1" source="3nuBFxr9cyL0pnOWT2aG-2" target="3nuBFxr9cyL0pnOWT2aG-6" edge="1">
          <mxGeometry x="0.1176" y="10" relative="1" as="geometry">
            <mxPoint x="275" y="160" as="sourcePoint" />
            <mxPoint as="offset" />
          </mxGeometry>
        </mxCell>
        <mxCell id="6LJH4JD9_U_oKKo7QwNi-3" value="PCF" style="shape=umlLifeline;perimeter=lifelinePerimeter;container=1;collapsible=0;recursiveResize=0;rounded=0;shadow=0;strokeWidth=1;fillColor=#f0a30a;strokeColor=#BD7000;fontColor=#ffffff;" vertex="1" parent="1">
          <mxGeometry x="630" y="80" width="100" height="880" as="geometry" />
        </mxCell>
        <mxCell id="6LJH4JD9_U_oKKo7QwNi-4" value="" style="points=[];perimeter=orthogonalPerimeter;rounded=0;shadow=0;strokeWidth=1;" vertex="1" parent="6LJH4JD9_U_oKKo7QwNi-3">
          <mxGeometry x="45" y="340" width="10" height="160" as="geometry" />
        </mxCell>
        <mxCell id="6LJH4JD9_U_oKKo7QwNi-5" value="SMF" style="shape=umlLifeline;perimeter=lifelinePerimeter;container=1;collapsible=0;recursiveResize=0;rounded=0;shadow=0;strokeWidth=1;fillColor=#f0a30a;strokeColor=#BD7000;fontColor=#ffffff;" vertex="1" parent="1">
          <mxGeometry x="763" y="80" width="100" height="1020" as="geometry" />
        </mxCell>
        <mxCell id="6LJH4JD9_U_oKKo7QwNi-6" value="" style="points=[];perimeter=orthogonalPerimeter;rounded=0;shadow=0;strokeWidth=1;" vertex="1" parent="6LJH4JD9_U_oKKo7QwNi-5">
          <mxGeometry x="45" y="80" width="10" height="190" as="geometry" />
        </mxCell>
        <mxCell id="6LJH4JD9_U_oKKo7QwNi-26" value="" style="points=[];perimeter=orthogonalPerimeter;rounded=0;shadow=0;strokeWidth=1;" vertex="1" parent="6LJH4JD9_U_oKKo7QwNi-5">
          <mxGeometry x="45" y="340" width="10" height="40" as="geometry" />
        </mxCell>
        <mxCell id="6LJH4JD9_U_oKKo7QwNi-8" value="" style="points=[];perimeter=orthogonalPerimeter;rounded=0;shadow=0;strokeWidth=1;" vertex="1" parent="6LJH4JD9_U_oKKo7QwNi-5">
          <mxGeometry x="45" y="460" width="10" height="160" as="geometry" />
        </mxCell>
        <mxCell id="6LJH4JD9_U_oKKo7QwNi-51" value="" style="points=[];perimeter=orthogonalPerimeter;rounded=0;shadow=0;strokeWidth=1;" vertex="1" parent="6LJH4JD9_U_oKKo7QwNi-5">
          <mxGeometry x="45" y="770" width="10" height="120" as="geometry" />
        </mxCell>
        <mxCell id="6LJH4JD9_U_oKKo7QwNi-7" value="UPF" style="shape=umlLifeline;perimeter=lifelinePerimeter;container=1;collapsible=0;recursiveResize=0;rounded=0;shadow=0;strokeWidth=1;fillColor=#f0a30a;strokeColor=#BD7000;fontColor=#ffffff;" vertex="1" parent="1">
          <mxGeometry x="890" y="80" width="100" height="1020" as="geometry" />
        </mxCell>
        <mxCell id="6LJH4JD9_U_oKKo7QwNi-33" value="" style="points=[];perimeter=orthogonalPerimeter;rounded=0;shadow=0;strokeWidth=1;" vertex="1" parent="6LJH4JD9_U_oKKo7QwNi-7">
          <mxGeometry x="45" y="510" width="10" height="120" as="geometry" />
        </mxCell>
        <mxCell id="6LJH4JD9_U_oKKo7QwNi-9" value="UDM" style="shape=umlLifeline;perimeter=lifelinePerimeter;container=1;collapsible=0;recursiveResize=0;rounded=0;shadow=0;strokeWidth=1;fillColor=#f0a30a;strokeColor=#BD7000;fontColor=#ffffff;" vertex="1" parent="1">
          <mxGeometry x="1030" y="80" width="100" height="1020" as="geometry" />
        </mxCell>
        <mxCell id="6LJH4JD9_U_oKKo7QwNi-10" value="" style="points=[];perimeter=orthogonalPerimeter;rounded=0;shadow=0;strokeWidth=1;" vertex="1" parent="6LJH4JD9_U_oKKo7QwNi-9">
          <mxGeometry x="45" y="170" width="10" height="150" as="geometry" />
        </mxCell>
        <mxCell id="6LJH4JD9_U_oKKo7QwNi-11" value="UDR" style="shape=umlLifeline;perimeter=lifelinePerimeter;container=1;collapsible=0;recursiveResize=0;rounded=0;shadow=0;strokeWidth=1;fillColor=#f0a30a;strokeColor=#BD7000;fontColor=#ffffff;" vertex="1" parent="1">
          <mxGeometry x="1170" y="80" width="100" height="1020" as="geometry" />
        </mxCell>
        <mxCell id="6LJH4JD9_U_oKKo7QwNi-12" value="" style="points=[];perimeter=orthogonalPerimeter;rounded=0;shadow=0;strokeWidth=1;" vertex="1" parent="6LJH4JD9_U_oKKo7QwNi-11">
          <mxGeometry x="45" y="180" width="10" height="130" as="geometry" />
        </mxCell>
        <mxCell id="6LJH4JD9_U_oKKo7QwNi-30" value="" style="points=[];perimeter=orthogonalPerimeter;rounded=0;shadow=0;strokeWidth=1;" vertex="1" parent="6LJH4JD9_U_oKKo7QwNi-11">
          <mxGeometry x="45" y="350" width="10" height="160" as="geometry" />
        </mxCell>
        <mxCell id="6LJH4JD9_U_oKKo7QwNi-1" value="AMF" style="shape=umlLifeline;perimeter=lifelinePerimeter;container=1;collapsible=0;recursiveResize=0;rounded=0;shadow=0;strokeWidth=1;fillColor=#f0a30a;strokeColor=#BD7000;fontColor=#ffffff;" vertex="1" parent="1">
          <mxGeometry x="500" y="80" width="100" height="970" as="geometry" />
        </mxCell>
        <mxCell id="6LJH4JD9_U_oKKo7QwNi-2" value="" style="points=[];perimeter=orthogonalPerimeter;rounded=0;shadow=0;strokeWidth=1;" vertex="1" parent="6LJH4JD9_U_oKKo7QwNi-1">
          <mxGeometry x="45" y="80" width="10" height="200" as="geometry" />
        </mxCell>
        <mxCell id="6LJH4JD9_U_oKKo7QwNi-39" value="" style="points=[];perimeter=orthogonalPerimeter;rounded=0;shadow=0;strokeWidth=1;" vertex="1" parent="6LJH4JD9_U_oKKo7QwNi-1">
          <mxGeometry x="45" y="590" width="10" height="140" as="geometry" />
        </mxCell>
        <mxCell id="6LJH4JD9_U_oKKo7QwNi-47" value="" style="points=[];perimeter=orthogonalPerimeter;rounded=0;shadow=0;strokeWidth=1;" vertex="1" parent="6LJH4JD9_U_oKKo7QwNi-1">
          <mxGeometry x="45" y="770" width="10" height="140" as="geometry" />
        </mxCell>
        <mxCell id="6LJH4JD9_U_oKKo7QwNi-16" value="NGAP UL NAS Transport&#xa;N1 PDUSession Estalishment Request" style="verticalAlign=bottom;endArrow=block;entryX=-0.2;entryY=0.125;shadow=0;strokeWidth=1;exitX=1;exitY=0.371;exitDx=0;exitDy=0;exitPerimeter=0;entryDx=0;entryDy=0;entryPerimeter=0;" edge="1" parent="1" source="3nuBFxr9cyL0pnOWT2aG-6" target="6LJH4JD9_U_oKKo7QwNi-2">
          <mxGeometry x="0.1092" y="7" relative="1" as="geometry">
            <mxPoint x="380" y="210.0000000000001" as="sourcePoint" />
            <mxPoint x="580" y="210.0000000000001" as="targetPoint" />
            <mxPoint as="offset" />
          </mxGeometry>
        </mxCell>
        <mxCell id="6LJH4JD9_U_oKKo7QwNi-17" value="Nsmf_PDU_Session_CreateSMContext_Request" style="verticalAlign=bottom;endArrow=block;shadow=0;strokeWidth=1;exitX=0.9;exitY=0.415;exitDx=0;exitDy=0;exitPerimeter=0;entryX=0.1;entryY=0.426;entryDx=0;entryDy=0;entryPerimeter=0;" edge="1" parent="1" source="6LJH4JD9_U_oKKo7QwNi-2" target="6LJH4JD9_U_oKKo7QwNi-6">
          <mxGeometry x="0.0693" relative="1" as="geometry">
            <mxPoint x="364" y="196.08000000000004" as="sourcePoint" />
            <mxPoint x="610" y="210" as="targetPoint" />
            <mxPoint as="offset" />
            <Array as="points" />
          </mxGeometry>
        </mxCell>
        <mxCell id="6LJH4JD9_U_oKKo7QwNi-18" value="SMF Selection" style="rounded=0;whiteSpace=wrap;html=1;fillColor=#e1d5e7;strokeColor=#9673a6;" vertex="1" parent="1">
          <mxGeometry x="505" y="200" width="90" height="20" as="geometry" />
        </mxCell>
        <mxCell id="6LJH4JD9_U_oKKo7QwNi-20" value="Nudm_SDM/GET SM DATA" style="verticalAlign=bottom;endArrow=block;shadow=0;strokeWidth=1;entryX=0;entryY=0.133;entryDx=0;entryDy=0;entryPerimeter=0;" edge="1" parent="1" target="6LJH4JD9_U_oKKo7QwNi-10">
          <mxGeometry x="0.0693" relative="1" as="geometry">
            <mxPoint x="814" y="270" as="sourcePoint" />
            <mxPoint x="1070" y="290" as="targetPoint" />
            <mxPoint as="offset" />
            <Array as="points" />
          </mxGeometry>
        </mxCell>
        <mxCell id="6LJH4JD9_U_oKKo7QwNi-21" value="Nudr_DR&#xa;GET Subscription" style="verticalAlign=bottom;endArrow=block;shadow=0;strokeWidth=1;" edge="1" parent="1">
          <mxGeometry x="0.0693" relative="1" as="geometry">
            <mxPoint x="1086" y="280" as="sourcePoint" />
            <mxPoint x="1216" y="280" as="targetPoint" />
            <mxPoint as="offset" />
            <Array as="points" />
          </mxGeometry>
        </mxCell>
        <mxCell id="6LJH4JD9_U_oKKo7QwNi-22" value="Nudr_DR_Response" style="verticalAlign=bottom;endArrow=block;shadow=0;strokeWidth=1;" edge="1" parent="1">
          <mxGeometry relative="1" as="geometry">
            <mxPoint x="1215" y="320" as="sourcePoint" />
            <mxPoint x="1085" y="320" as="targetPoint" />
          </mxGeometry>
        </mxCell>
        <mxCell id="6LJH4JD9_U_oKKo7QwNi-23" value="Nudm_SDM/GET SM DATA Response" style="verticalAlign=bottom;endArrow=block;shadow=0;strokeWidth=1;" edge="1" parent="1">
          <mxGeometry relative="1" as="geometry">
            <mxPoint x="1075" y="330" as="sourcePoint" />
            <mxPoint x="815" y="330" as="targetPoint" />
            <Array as="points">
              <mxPoint x="1025" y="330" />
            </Array>
          </mxGeometry>
        </mxCell>
        <mxCell id="6LJH4JD9_U_oKKo7QwNi-24" value="Nsmf_PDU_Session_CreateSMContext_Response" style="verticalAlign=bottom;endArrow=block;shadow=0;strokeWidth=1;" edge="1" parent="1">
          <mxGeometry relative="1" as="geometry">
            <mxPoint x="803" y="340" as="sourcePoint" />
            <mxPoint x="560" y="340" as="targetPoint" />
            <Array as="points">
              <mxPoint x="753" y="340" />
            </Array>
          </mxGeometry>
        </mxCell>
        <mxCell id="6LJH4JD9_U_oKKo7QwNi-25" value="PCF Selection" style="rounded=0;whiteSpace=wrap;html=1;fillColor=#e1d5e7;strokeColor=#9673a6;" vertex="1" parent="1">
          <mxGeometry x="760" y="370" width="90" height="20" as="geometry" />
        </mxCell>
        <mxCell id="6LJH4JD9_U_oKKo7QwNi-27" value="Npcf_SMPolicyControl_&#xa;Create_Request" style="verticalAlign=bottom;endArrow=block;shadow=0;strokeWidth=1;" edge="1" parent="1">
          <mxGeometry relative="1" as="geometry">
            <mxPoint x="803" y="450" as="sourcePoint" />
            <mxPoint x="693" y="450" as="targetPoint" />
            <Array as="points" />
          </mxGeometry>
        </mxCell>
        <mxCell id="6LJH4JD9_U_oKKo7QwNi-28" value="Npcf_SMPolicyControl_&#xa;Create_Response" style="verticalAlign=bottom;endArrow=block;shadow=0;strokeWidth=1;exitX=1.3;exitY=0.869;exitDx=0;exitDy=0;exitPerimeter=0;endSize=6;startSize=6;" edge="1" parent="1">
          <mxGeometry x="0.0693" relative="1" as="geometry">
            <mxPoint x="683" y="559.04" as="sourcePoint" />
            <mxPoint x="804" y="559" as="targetPoint" />
            <mxPoint as="offset" />
            <Array as="points" />
          </mxGeometry>
        </mxCell>
        <mxCell id="6LJH4JD9_U_oKKo7QwNi-29" value="Nudr_DR/GET Policy Data" style="verticalAlign=bottom;endArrow=block;shadow=0;strokeWidth=1;" edge="1" parent="1">
          <mxGeometry x="0.0693" relative="1" as="geometry">
            <mxPoint x="687" y="470" as="sourcePoint" />
            <mxPoint x="1217" y="470" as="targetPoint" />
            <mxPoint as="offset" />
            <Array as="points" />
          </mxGeometry>
        </mxCell>
        <mxCell id="6LJH4JD9_U_oKKo7QwNi-32" value="Nudr_DR/GET Policy Data Response" style="verticalAlign=bottom;endArrow=block;shadow=0;strokeWidth=1;" edge="1" parent="1">
          <mxGeometry relative="1" as="geometry">
            <mxPoint x="1214.5" y="510" as="sourcePoint" />
            <mxPoint x="685" y="510" as="targetPoint" />
            <Array as="points">
              <mxPoint x="965" y="510" />
            </Array>
          </mxGeometry>
        </mxCell>
        <mxCell id="6LJH4JD9_U_oKKo7QwNi-34" value="UPF Selection" style="rounded=0;whiteSpace=wrap;html=1;fillColor=#e1d5e7;strokeColor=#9673a6;" vertex="1" parent="1">
          <mxGeometry x="768" y="570" width="90" height="20" as="geometry" />
        </mxCell>
        <mxCell id="6LJH4JD9_U_oKKo7QwNi-35" value="N4 Session&#xa;Establishment" style="verticalAlign=bottom;endArrow=block;shadow=0;strokeWidth=1;" edge="1" parent="1">
          <mxGeometry x="0.0693" relative="1" as="geometry">
            <mxPoint x="820" y="630" as="sourcePoint" />
            <mxPoint x="933" y="630" as="targetPoint" />
            <mxPoint as="offset" />
            <Array as="points" />
          </mxGeometry>
        </mxCell>
        <mxCell id="6LJH4JD9_U_oKKo7QwNi-36" value="N4 Session&#xa;Establishment &#xa;Response" style="verticalAlign=bottom;endArrow=block;shadow=0;strokeWidth=1;" edge="1" parent="1">
          <mxGeometry relative="1" as="geometry">
            <mxPoint x="930" y="680" as="sourcePoint" />
            <mxPoint x="820" y="680" as="targetPoint" />
            <Array as="points" />
          </mxGeometry>
        </mxCell>
        <mxCell id="6LJH4JD9_U_oKKo7QwNi-38" value="Namf_Communication_N1N2_message_Transfer" style="verticalAlign=bottom;endArrow=block;shadow=0;strokeWidth=1;" edge="1" parent="1">
          <mxGeometry relative="1" as="geometry">
            <mxPoint x="805" y="690" as="sourcePoint" />
            <mxPoint x="555" y="690" as="targetPoint" />
            <Array as="points">
              <mxPoint x="645" y="690" />
            </Array>
          </mxGeometry>
        </mxCell>
        <mxCell id="6LJH4JD9_U_oKKo7QwNi-40" value="NGAP_PDU_Session_Setup_Request&#xa;(DL_NAS_TRANSPORT(PDU Session&#xa;Establishment Accept))" style="verticalAlign=bottom;endArrow=block;shadow=0;strokeWidth=1;" edge="1" parent="1">
          <mxGeometry relative="1" as="geometry">
            <mxPoint x="546.5" y="716" as="sourcePoint" />
            <mxPoint x="357" y="715" as="targetPoint" />
            <Array as="points" />
          </mxGeometry>
        </mxCell>
        <mxCell id="6LJH4JD9_U_oKKo7QwNi-43" value="RRC Reconfiguration + NAS" style="verticalAlign=bottom;endArrow=block;shadow=0;strokeWidth=1;entryX=1;entryY=0.317;entryDx=0;entryDy=0;entryPerimeter=0;" edge="1" parent="1" target="6LJH4JD9_U_oKKo7QwNi-42">
          <mxGeometry relative="1" as="geometry">
            <mxPoint x="346" y="739" as="sourcePoint" />
            <mxPoint x="146" y="750" as="targetPoint" />
            <Array as="points" />
          </mxGeometry>
        </mxCell>
        <mxCell id="6LJH4JD9_U_oKKo7QwNi-45" value="NGAP_PDU_Session_&#xa;Setup_Response" style="verticalAlign=bottom;endArrow=block;shadow=0;strokeWidth=1;" edge="1" parent="1">
          <mxGeometry x="0.0693" relative="1" as="geometry">
            <mxPoint x="358" y="780" as="sourcePoint" />
            <mxPoint x="547.5" y="780" as="targetPoint" />
            <mxPoint as="offset" />
            <Array as="points" />
          </mxGeometry>
        </mxCell>
        <mxCell id="6LJH4JD9_U_oKKo7QwNi-44" value="" style="shape=flexArrow;endArrow=classic;html=1;fillColor=#60a917;strokeColor=#2D7600;entryX=0.48;entryY=0.745;entryDx=0;entryDy=0;entryPerimeter=0;" edge="1" parent="1">
          <mxGeometry width="50" height="50" relative="1" as="geometry">
            <mxPoint x="139.5" y="833.9000000000001" as="sourcePoint" />
            <mxPoint x="938" y="833.9000000000001" as="targetPoint" />
          </mxGeometry>
        </mxCell>
        <mxCell id="6LJH4JD9_U_oKKo7QwNi-46" value="First Uplink Traffic" style="edgeLabel;html=1;align=center;verticalAlign=middle;resizable=0;points=[];" vertex="1" connectable="0" parent="6LJH4JD9_U_oKKo7QwNi-44">
          <mxGeometry x="-0.0523" y="2" relative="1" as="geometry">
            <mxPoint as="offset" />
          </mxGeometry>
        </mxCell>
        <mxCell id="6LJH4JD9_U_oKKo7QwNi-48" value="Nsmf_PDU_Session_UpdateSMContext Request" style="verticalAlign=bottom;endArrow=block;shadow=0;strokeWidth=1;" edge="1" parent="1">
          <mxGeometry x="0.0693" relative="1" as="geometry">
            <mxPoint x="555" y="880" as="sourcePoint" />
            <mxPoint x="807.5" y="880" as="targetPoint" />
            <mxPoint as="offset" />
            <Array as="points" />
          </mxGeometry>
        </mxCell>
        <mxCell id="6LJH4JD9_U_oKKo7QwNi-52" value="" style="points=[];perimeter=orthogonalPerimeter;rounded=0;shadow=0;strokeWidth=1;" vertex="1" parent="1">
          <mxGeometry x="935" y="850" width="10" height="120" as="geometry" />
        </mxCell>
        <mxCell id="6LJH4JD9_U_oKKo7QwNi-54" value="N4 Session&#xa;Modification" style="verticalAlign=bottom;endArrow=block;shadow=0;strokeWidth=1;" edge="1" parent="1">
          <mxGeometry x="0.0693" relative="1" as="geometry">
            <mxPoint x="822" y="900" as="sourcePoint" />
            <mxPoint x="935" y="900" as="targetPoint" />
            <mxPoint as="offset" />
            <Array as="points" />
          </mxGeometry>
        </mxCell>
        <mxCell id="6LJH4JD9_U_oKKo7QwNi-55" value="N4 Session&#xa;Modification&#xa;Response" style="verticalAlign=bottom;endArrow=block;shadow=0;strokeWidth=1;" edge="1" parent="1">
          <mxGeometry relative="1" as="geometry">
            <mxPoint x="932" y="950" as="sourcePoint" />
            <mxPoint x="822" y="950" as="targetPoint" />
            <Array as="points" />
          </mxGeometry>
        </mxCell>
        <mxCell id="6LJH4JD9_U_oKKo7QwNi-56" value="Nsmf_PDU_Session_UpdateSMContext Response" style="verticalAlign=bottom;endArrow=block;shadow=0;strokeWidth=1;" edge="1" parent="1">
          <mxGeometry relative="1" as="geometry">
            <mxPoint x="805" y="959" as="sourcePoint" />
            <mxPoint x="555" y="959" as="targetPoint" />
            <Array as="points">
              <mxPoint x="645" y="959" />
            </Array>
          </mxGeometry>
        </mxCell>
      </root>
    </mxGraphModel>
  </diagram>
</mxfile>
